<svg xmlns="http://www.w3.org/2000/svg" width="100" height="57" viewBox="0 0 100 57" version="1.1">
	<path d="M 0 28.509 L 0 57.018 50.250 56.759 L 100.500 56.500 100.766 28.250 L 101.031 0 50.516 0 L 0 0 0 28.509 M -0.001 28.750 L -0.003 56.500 16.499 56.203 L 33 55.907 33 51.453 L 33 47 16.750 46.850 C 7.813 46.767, 2.525 46.430, 5 46.100 C 7.475 45.770, 9.387 45.163, 9.250 44.750 C 8.633 42.900, 9.227 42.702, 10 44.500 C 10.694 46.116, 10.873 46.177, 10.930 44.820 C 11.048 41.982, 25 41.761, 25 44.597 C 25 45.567, 26.233 46, 29 46 L 33 46 33 40.500 L 33 35 17.250 34.832 C 8.587 34.739, 3.300 34.484, 5.500 34.265 C 7.700 34.046, 9.950 33.388, 10.500 32.803 C 11.201 32.058, 10.377 31.909, 7.750 32.307 C 4.669 32.773, 4 32.572, 4 31.180 C 4 29.685, 5.202 29.510, 14.250 29.694 C 19.887 29.809, 25.775 29.925, 27.333 29.951 C 29.143 29.982, 30.015 30.452, 29.746 31.250 C 29.515 31.938, 28.170 32.361, 26.758 32.191 C 25.346 32.021, 23.880 32.385, 23.500 33 C 23.019 33.779, 24.276 34.024, 27.655 33.809 C 32.096 33.526, 32.526 33.273, 32.814 30.775 L 33.128 28.050 16.814 27.749 L 0.500 27.447 16.750 27.223 L 33 27 33 22.500 L 33 18 16.750 17.789 L 0.500 17.577 16.500 17.039 L 32.500 16.500 32.500 12 L 32.500 7.500 16.500 6.961 C 7.700 6.665, 3.088 6.328, 6.250 6.211 C 11.171 6.030, 12 5.724, 12 4.088 C 12 2.807, 12.577 2.287, 13.750 2.512 C 14.713 2.696, 16.962 2.881, 18.750 2.923 C 20.938 2.975, 22 3.490, 22 4.500 C 22 5.652, 23.278 6, 27.500 6 C 32.700 6, 33 5.864, 33 3.500 L 33 1 16.500 1 L 0 1 -0.001 28.750 M 34 3.500 C 34 5.750, 34.400 6, 38 6 C 41.246 6, 42 5.646, 42 4.123 C 42 2.445, 42.718 2.274, 48.750 2.515 C 58.241 2.894, 58 2.843, 58 4.500 C 58 5.583, 59.111 6, 62 6 C 65.600 6, 66 5.750, 66 3.500 L 66 1 50 1 L 34 1 34 3.500 M 67 3.500 C 67 5.690, 67.433 6, 70.500 6 C 73.167 6, 74 5.583, 74 4.250 C 74 2.641, 80.575 2.144, 91.250 2.944 C 91.662 2.975, 92 3.675, 92 4.500 C 92 5.548, 93.056 6, 95.500 6 C 98.567 6, 99 5.690, 99 3.500 L 99 1 83 1 L 67 1 67 3.500 M 34 12 L 34 17 50 17 L 66 17 66 12 L 66 7 50 7 L 34 7 34 12 M 67.398 8.405 C 67.102 9.177, 67.003 11.315, 67.180 13.155 L 67.500 16.500 83.250 16.775 L 99 17.051 99 12.025 L 99 7 83.469 7 C 71.053 7, 67.829 7.282, 67.398 8.405 M 47.380 11.452 C 46.601 13.482, 47.761 15, 50.090 15 C 52.525 15, 53.798 12.119, 51.896 10.914 C 49.820 9.600, 48.008 9.816, 47.380 11.452 M 13 12.500 C 13 13.583, 14.111 14, 17 14 C 19.200 14, 21 13.602, 21 13.117 C 21 11.780, 16.137 11.129, 15.614 12.395 C 15.321 13.106, 15.130 13.054, 15.079 12.250 C 14.966 10.462, 13 10.698, 13 12.500 M 34 22.500 L 34 27 50 27 L 66 27 66 22.500 L 66 18 50 18 L 34 18 34 22.500 M 67 22.500 L 67 27 83 27 L 99 27 99 22.500 L 99 18 83 18 L 67 18 67 22.500 M 45.902 20.618 C 44.045 22.855, 46.563 24.941, 50.834 24.704 C 53.799 24.539, 54.561 24.070, 54.820 22.250 C 54.995 21.012, 54.770 19.951, 54.320 19.890 C 49.409 19.234, 46.869 19.453, 45.902 20.618 M 9 22.639 C 9 23.800, 10.523 24.027, 16.750 23.792 C 26.709 23.417, 26.522 21.553, 16.505 21.347 C 10.555 21.225, 9 21.493, 9 22.639 M 34 31 L 34 34 50 34 L 66 34 66 31 L 66 28 50 28 L 34 28 34 31 M 67.184 30.750 C 67.497 33.475, 67.575 33.503, 75.750 33.790 C 81.520 33.994, 84 33.731, 84 32.918 C 84 32.084, 84.364 32.057, 85.285 32.821 C 85.991 33.408, 89.254 34.053, 92.535 34.255 C 95.816 34.457, 91.412 34.707, 82.750 34.811 L 67 35 67 40.500 L 67 46 83 46 L 99 46 99 37 L 99 28 82.934 28 L 66.867 28 67.184 30.750 M 12.361 33.225 C 12.098 33.651, 13.510 34, 15.500 34 C 17.620 34, 18.866 33.592, 18.509 33.015 C 17.815 31.892, 13.085 32.053, 12.361 33.225 M 34 40.500 L 34 46 50 46 L 66 46 66 40.500 L 66 35 50 35 L 34 35 34 40.500 M 5.999 38.017 C 6 39.583, 11.638 39.960, 13.923 38.547 C 14.516 38.181, 15 38.264, 15 38.731 C 15 40.058, 21.308 39.575, 21.762 38.214 C 21.985 37.546, 21.567 36.983, 20.833 36.962 C 20.100 36.940, 16.462 36.828, 12.749 36.712 C 7.288 36.540, 5.999 36.790, 5.999 38.017 M 23.500 37 C 22.499 38.620, 23.845 39.853, 26.001 39.289 C 28.401 38.662, 28.591 37.441, 26.418 36.607 C 24.344 35.811, 24.225 35.827, 23.500 37 M 43.965 38.542 C 41.691 41.283, 44.015 43, 50 43 C 55.947 43, 58.514 41.114, 55.995 38.595 C 54.508 37.108, 45.190 37.066, 43.965 38.542 M 34 51.500 L 34 56 50 56 L 66 56 66 51.500 L 66 47 50 47 L 34 47 34 51.500 M 67 51.500 L 67 56 83 56 L 99 56 99 51.500 L 99 47 83 47 L 67 47 67 51.500 M 47.332 50.578 C 46.999 51.445, 47.463 52.892, 48.363 53.792 C 49.879 55.307, 50.121 55.307, 51.637 53.792 C 53.681 51.747, 52.743 49, 50 49 C 48.865 49, 47.665 49.710, 47.332 50.578 M 8.603 50.731 C 6.193 53.140, 8.380 53.945, 16.750 53.727 C 25.222 53.507, 28.474 51.754, 21.173 51.342 C 19.343 51.239, 17.220 50.915, 16.455 50.621 C 15.690 50.328, 14.809 50.500, 14.497 51.005 C 14.157 51.555, 12.982 51.564, 11.567 51.026 C 10.268 50.532, 8.934 50.399, 8.603 50.731" stroke="none" fill="lightgray" fill-rule="evenodd"/>
</svg>