<svg xmlns="http://www.w3.org/2000/svg" width="100" height="45" viewBox="0 0 100 45" version="1.1">
	<path d="M 60.079 4.640 C 60.029 5.359, 58.706 5.606, 56.500 5.309 C 53.901 4.958, 53 5.208, 53 6.278 C 53 7.379, 54.653 7.761, 60 7.896 C 65.667 8.039, 67 7.784, 67 6.556 C 67 5.464, 66.170 5.136, 64.038 5.384 C 62.409 5.574, 60.870 5.227, 60.617 4.614 C 60.287 3.814, 60.136 3.821, 60.079 4.640 M 53.237 11.163 C 51.255 13.145, 51.786 14, 55 14 C 57.089 14, 58 13.512, 58 12.393 C 58 11.408, 57.445 10.999, 56.565 11.337 C 55.775 11.640, 54.982 11.446, 54.802 10.906 C 54.611 10.334, 53.960 10.440, 53.237 11.163 M 59.993 11.508 C 58.994 12.712, 59.631 14, 61.226 14 C 61.716 14, 61.840 13.550, 61.500 13 C 61.160 12.450, 61.359 12, 61.941 12 C 62.523 12, 63 12.450, 63 13 C 63 13.550, 63.708 14, 64.573 14 C 65.505 14, 66.015 13.320, 65.823 12.332 C 65.444 10.376, 61.406 9.805, 59.993 11.508 M 7.377 15.332 C 0.844 22.630, -0 23.928, 0 26.674 L 0 29.324 36.164 28.662 C 56.053 28.298, 78.778 28, 86.664 28 L 101 28 101 24.833 C 101 23.092, 100.721 21.945, 100.381 22.286 C 99.641 23.026, 97 20.568, 97 19.139 C 97 17.617, 93.222 16.732, 87.312 16.868 C 82.283 16.984, 82 16.858, 82 14.495 C 82 11.773, 86.334 10.762, 87.338 13.250 C 87.639 13.997, 87.874 13.795, 87.921 12.750 C 87.986 11.312, 87.131 11, 83.127 11 C 78.637 11, 77.931 11.351, 74.127 15.478 C 71.857 17.940, 70 20.640, 70 21.478 C 70 22.714, 68.493 23, 61.966 23 C 54.358 23, 53.777 22.841, 51 20 C 48.382 17.322, 47.419 17, 42.034 17 C 36.099 17, 36.001 16.955, 36.079 14.250 C 36.122 12.738, 36.385 12.063, 36.662 12.750 C 37.374 14.515, 40.667 14.310, 40.667 12.500 C 40.667 9.469, 32.534 10.577, 29.653 14 C 27.034 17.113, 22.604 18.083, 21.662 15.750 C 21.259 14.750, 21.142 14.750, 21.079 15.750 C 21.034 16.455, 19.691 17, 18 17 C 13.762 17, 13.542 12.354, 17.750 11.716 C 19.504 11.451, 18.826 11.245, 15.877 11.150 C 11.611 11.012, 10.956 11.333, 7.377 15.332 M 10 14.500 L 7.651 17 10.326 17 C 12.512 17, 13 16.543, 13 14.500 C 13 11.413, 12.900 11.413, 10 14.500 M 31 14.500 L 28.651 17 31.826 17 C 34.545 17, 35 16.642, 35 14.500 C 35 13.125, 34.628 12, 34.174 12 C 33.720 12, 32.292 13.125, 31 14.500 M 76.701 14.632 C 75.295 16.038, 76.059 17, 78.583 17 C 80.205 17, 81.012 16.535, 80.750 15.750 C 80.269 14.304, 77.730 13.603, 76.701 14.632 M 61 17 C 61 17.550, 59.538 18.067, 57.750 18.150 L 54.500 18.300 57.497 18.740 C 59.145 18.982, 60.775 19.636, 61.120 20.193 C 61.531 20.859, 62.537 20.783, 64.053 19.972 C 66.275 18.783, 66.291 18.686, 64.489 17.368 C 62.276 15.750, 61 15.616, 61 17 M 17 33.289 C 17 34.028, 15.866 34.562, 14.348 34.539 C 12.889 34.518, 11.537 34.955, 11.344 35.511 C 11.151 36.067, 12.569 36.549, 14.496 36.582 C 17.512 36.633, 18 36.318, 18 34.321 C 18 33.044, 17.775 32, 17.500 32 C 17.225 32, 17 32.580, 17 33.289 M 59.250 33.141 C 57.088 35.319, 57.834 36.871, 61 36.781 C 62.919 36.726, 64 36.172, 64 35.241 C 64 34.387, 63.407 34.014, 62.563 34.338 C 61.756 34.647, 60.988 34.230, 60.813 33.386 C 60.562 32.179, 60.254 32.131, 59.250 33.141 M 70.015 32.750 C 70.007 33.438, 69.100 34, 68 34 C 66.822 34, 66 34.667, 66 35.622 C 66 36.951, 66.271 37.020, 67.500 36 C 68.325 35.315, 69 35.161, 69 35.657 C 69 36.153, 71.250 36.608, 74 36.668 C 78.016 36.756, 78.997 36.455, 78.985 35.139 C 78.973 33.860, 78.784 33.793, 78.124 34.834 C 77.448 35.899, 77.151 35.835, 76.644 34.515 C 76.199 33.355, 75.375 33.064, 73.880 33.538 C 72.542 33.963, 71.431 33.710, 70.890 32.857 C 70.258 31.859, 70.027 31.830, 70.015 32.750 M 80.116 34.083 C 80.041 35.765, 80.524 36.667, 81.500 36.667 C 82.325 36.667, 83.007 36.179, 83.015 35.583 C 83.024 34.987, 83.423 35.120, 83.904 35.878 C 84.829 37.340, 87 36.603, 87 34.827 C 87 34.228, 85.723 33.960, 84.039 34.208 C 81.936 34.516, 80.955 34.187, 80.655 33.071 C 80.422 32.207, 80.180 32.663, 80.116 34.083 M 19.070 34.680 C 19.011 36.522, 19.505 36.833, 22.250 36.685 C 24.038 36.589, 25.837 36.058, 26.250 35.505 C 26.723 34.871, 27.369 35.054, 28 36 C 28.832 37.248, 29.147 37.271, 29.879 36.137 C 30.593 35.029, 30.840 35.020, 31.195 36.086 C 31.510 37.029, 31.817 36.920, 32.285 35.699 C 32.854 34.217, 32.175 34, 26.969 34 C 22.898 34, 20.978 34.397, 20.930 35.250 C 20.891 35.938, 20.473 35.600, 20 34.500 C 19.170 32.568, 19.138 32.574, 19.070 34.680 M 49.750 33.805 C 46.064 34.041, 45.003 34.489, 45.015 35.805 C 45.029 37.265, 45.165 37.292, 46 36 C 46.862 34.667, 46.973 34.667, 47 36 C 47.027 37.333, 47.138 37.333, 48 36 C 48.533 35.175, 48.976 34.967, 48.985 35.537 C 49.006 36.992, 52.997 37.142, 53.015 35.688 C 53.025 34.967, 53.396 35.078, 53.961 35.971 C 55.107 37.784, 55.980 37.055, 55.124 35 C 54.666 33.898, 53.239 33.581, 49.750 33.805 M 35 36.035 C 35 37.713, 35.328 37.895, 36.869 37.070 C 37.896 36.520, 39.046 36.379, 39.423 36.756 C 39.800 37.133, 40.527 36.780, 41.039 35.971 C 41.726 34.885, 41.973 34.843, 41.985 35.809 C 41.993 36.529, 42.450 36.840, 43 36.500 C 45.266 35.100, 43.726 34, 39.500 34 C 35.641 34, 35 34.290, 35 36.035 M 91 35.500 C 91 37.316, 92.635 37.491, 93.338 35.750 C 93.741 34.750, 93.858 34.750, 93.921 35.750 C 94.034 37.538, 96 37.302, 96 35.500 C 96 34.567, 95.056 34, 93.500 34 C 91.944 34, 91 34.567, 91 35.500 M 3.421 40.345 C 3.043 41.329, 3.244 42.644, 3.867 43.267 C 4.516 43.916, 5 43.978, 5 43.412 C 5 42.868, 7.025 42.441, 9.499 42.462 C 11.974 42.483, 13.999 42.893, 13.999 43.372 C 14 43.852, 14.675 43.685, 15.500 43 C 16.489 42.179, 17 42.126, 17 42.846 C 17 43.446, 17.616 43.701, 18.368 43.412 C 20.669 42.529, 29 42.448, 29 43.309 C 29 43.754, 29.430 43.852, 29.956 43.527 C 30.482 43.202, 30.688 42.351, 30.413 41.635 C 29.895 40.285, 21.189 40.147, 19.071 41.456 C 18.482 41.820, 18 41.586, 18 40.937 C 18 40.056, 17.618 40.072, 16.500 41 C 15.675 41.685, 15 41.852, 15 41.372 C 15 40.893, 12.863 40.546, 10.250 40.603 C 7.638 40.659, 5.187 40.222, 4.804 39.631 C 4.366 38.955, 3.852 39.221, 3.421 40.345 M 34.304 39.812 C 31.722 41.408, 32.499 43.353, 35.801 43.562 C 38.216 43.715, 39.022 43.385, 38.801 42.333 C 38.636 41.542, 38.100 40.957, 37.612 41.033 C 37.123 41.109, 36.436 40.706, 36.085 40.138 C 35.734 39.570, 34.933 39.424, 34.304 39.812 M 45.015 40.750 C 45.007 41.987, 45.563 43.037, 46.250 43.081 C 46.938 43.126, 48.737 43.253, 50.250 43.364 C 51.763 43.475, 53 43.199, 53 42.751 C 53 41.680, 48.746 40.089, 47.638 40.746 C 47.164 41.026, 46.384 40.636, 45.904 39.878 C 45.256 38.855, 45.027 39.080, 45.015 40.750 M 58.674 39.719 C 57.957 40.878, 60.435 44, 62.071 44 C 62.582 44, 63 43.052, 63 41.893 C 63 40.473, 62.532 39.966, 61.565 40.337 C 60.775 40.640, 59.958 40.373, 59.748 39.743 C 59.468 38.904, 59.181 38.898, 58.674 39.719 M 66.076 40.409 C 65.389 41.236, 65.099 42.351, 65.430 42.886 C 66.332 44.346, 71.500 43.496, 71.500 41.889 C 71.500 41.125, 70.866 40.636, 70.092 40.803 C 69.317 40.969, 68.377 40.611, 68.003 40.005 C 67.538 39.252, 66.930 39.380, 66.076 40.409 M 83 41 C 83 42.346, 83.421 42.858, 84.155 42.405 C 84.789 42.012, 85.045 42.118, 84.722 42.640 C 84.371 43.208, 86.620 43.508, 90.318 43.386 C 98.547 43.114, 99.146 40.594, 91 40.515 C 87.975 40.486, 84.938 40.107, 84.250 39.672 C 83.395 39.131, 83 39.551, 83 41 M 77.263 41.757 C 76.982 42.488, 77 43.333, 77.301 43.634 C 78.217 44.550, 82 42.950, 82 41.647 C 82 39.996, 77.902 40.091, 77.263 41.757 M 53.429 43 C 53.429 45.467, 54.563 45.580, 55.920 43.250 C 56.486 42.279, 56.953 42.056, 56.970 42.750 C 56.986 43.438, 57.436 44, 57.969 44 C 58.501 44, 58.678 43.325, 58.362 42.500 C 57.471 40.178, 53.429 40.587, 53.429 43" stroke="none" fill="lightgray" fill-rule="evenodd"/>
</svg>